<?xml version="1.0" encoding="UTF-8"?>
<svg version="1.1" xmlns="http://www.w3.org/2000/svg" width="340" height="219">
<path d="M0 0 C0.66 0 1.32 0 2 0 C2.12117188 0.86882813 2.24234375 1.73765625 2.3671875 2.6328125 C2.53476563 3.78523437 2.70234375 4.93765625 2.875 6.125 C3.11863281 7.83042969 3.11863281 7.83042969 3.3671875 9.5703125 C3.97431417 12.86078915 4.86345633 15.85779103 6 19 C7.98 19.33 9.96 19.66 12 20 C12.33 19.34 12.66 18.68 13 18 C14.9940374 17.63267732 16.99639094 17.31090485 19 17 C20.69143759 16.53492387 22.37859497 16.0541511 24.0625 15.5625 C37.69277072 11.78143708 51.79362922 10.95879367 65.875 10.75 C66.67180176 10.72856934 67.46860352 10.70713867 68.28955078 10.68505859 C73.6192043 10.65487176 77.25405686 11.5464837 82 14 C82.495 14.495 82.495 14.495 83 15 C83.825 15.309375 84.65 15.61875 85.5 15.9375 C88 17 88 17 89 19 C91.97 19 94.94 19 98 19 C97.505 15.535 97.505 15.535 97 12 C97.66 12 98.32 12 99 12 C99.99 8.04 100.98 4.08 102 0 C103.65 0.33 105.3 0.66 107 1 C109.45640509 10.43716561 111.42838613 19.36205275 111.7265625 29.14453125 C112.0004833 32.00504701 112.69997863 33.49836526 114 36 C114.16015625 38.1484375 114.16015625 38.1484375 114.0625 40.375 C113.95564886 43.0044673 114.04413821 45.26375272 114.48046875 47.87109375 C115.03021415 51.18196644 115.20324447 54.33279081 115.25 57.6875 C115.28867187 59.36392578 115.28867187 59.36392578 115.328125 61.07421875 C114.95054881 64.44093977 114.32851735 64.77483721 112 67 C111.63786432 69.51289675 111.63786432 69.51289675 111.8125 72.1875 C111.83957031 73.08855469 111.86664063 73.98960938 111.89453125 74.91796875 C111.92933594 75.60503906 111.96414062 76.29210937 112 77 C112.99 77.33 113.98 77.66 115 78 C115 79.32 115 80.64 115 82 C116.31054623 83.35573748 117.64748503 84.68612831 119 86 C121.11113724 89.6749426 122.27423614 92.85277794 123 97 C123.64389782 99.00744615 124.30562253 101.00945124 125 103 C125.66 103 126.32 103 127 103 C129.29039723 112.76145486 130.30805116 121.95652064 130.06445312 131.99511719 C129.97543092 135.78470028 129.98251427 139.39848609 130.51953125 143.15625 C130.99120099 146.92960796 130.91656016 150.22335826 130.5625 154 C130.46066406 155.134375 130.35882813 156.26875 130.25390625 157.4375 C130.17011719 158.283125 130.08632812 159.12875 130 160 C128.35 160 126.7 160 125 160 C125.33 158.02 125.66 156.04 126 154 C125.566875 155.423125 125.566875 155.423125 125.125 156.875 C124 160 124 160 122 162 C122 162.99 122 163.98 122 165 C121.34 165 120.68 165 120 165 C118.3553326 167.46326712 118.3553326 167.46326712 117 170 C116.01 169.67 115.02 169.34 114 169 C113.3125 166.9375 113.3125 166.9375 113 165 C112.67 165.66 112.34 166.32 112 167 C111.01 166.67 110.02 166.34 109 166 C109 165.01 109 164.02 109 163 C108.28972656 162.80664062 107.57945312 162.61328125 106.84765625 162.4140625 C105.92855469 162.15367187 105.00945312 161.89328125 104.0625 161.625 C103.14597656 161.36976563 102.22945313 161.11453125 101.28515625 160.8515625 C99 160 99 160 98 158 C98.99 158 99.98 158 101 158 C101 157.34 101 156.68 101 156 C98.09399739 154.74335022 96.20395416 154 93 154 C92.67 154.66 92.34 155.32 92 156 C92.825 156.474375 93.65 156.94875 94.5 157.4375 C95.325 157.953125 96.15 158.46875 97 159 C97 159.33 97 159.66 97 160 C94.69 160 92.38 160 90 160 C89.505 154.06 89.505 154.06 89 148 C87.35 147.34 85.7 146.68 84 146 C82.26953125 144.4140625 82.26953125 144.4140625 80.8125 142.625 C80.32394531 142.03976563 79.83539063 141.45453125 79.33203125 140.8515625 C77.98141502 138.97416633 77.01838852 137.07115303 76 135 C74.4587688 133.29078411 74.4587688 133.29078411 73 132 C73.66 132 74.32 132 75 132 C75 131.34 75 130.68 75 130 C74.39027344 129.97550781 73.78054687 129.95101562 73.15234375 129.92578125 C71 129 71 129 69.69140625 125.98046875 C68.94115002 123.45971166 68.1911484 120.93887878 67.44140625 118.41796875 C65.83565016 114.61028154 64.2399071 113.42861329 61 111 C59.36422206 106.37174738 59.81578561 101.34298557 59.8125 96.5 C59.80025391 95.54996094 59.78800781 94.59992188 59.77539062 93.62109375 C59.77345703 92.70457031 59.77152344 91.78804688 59.76953125 90.84375 C59.76542236 90.01037109 59.76131348 89.17699219 59.75708008 88.31835938 C60.02182489 85.79170936 60.80194368 84.21508357 62 82 C62 81.34 62 80.68 62 80 C63.60341555 79.66307215 65.20776555 79.33058907 66.8125 79 C67.70582031 78.814375 68.59914063 78.62875 69.51953125 78.4375 C72 78 72 78 75 78 C75.33 77.34 75.66 76.68 76 76 C78.32156597 75.59270772 80.6568787 75.25561323 83 75 C82.34 73.02 81.68 71.04 81 69 C80.20335937 69.49113281 79.40671875 69.98226562 78.5859375 70.48828125 C74.0694837 72.39227648 70.45680689 72.33777151 65.625 72.1875 C64.79355469 72.17396484 63.96210938 72.16042969 63.10546875 72.14648438 C61.07002934 72.11139059 59.03492709 72.05759228 57 72 C57 70.02 57 68.04 57 66 C59.97 66.33 62.94 66.66 66 67 C63.36 66.01 60.72 65.02 58 64 C58 63.01 58 62.02 58 61 C57.505 60.1646875 57.505 60.1646875 57 59.3125 C55.52239272 55.89553316 55.41204961 52.62569406 56 49 C57.875 45.75 57.875 45.75 60 43 C60.33 42.236875 60.66 41.47375 61 40.6875 C62 39 62 39 63.77832031 38.40063477 C66.08872146 37.98400089 68.20036718 37.88648897 70.546875 37.90234375 C71.39121094 37.90556641 72.23554688 37.90878906 73.10546875 37.91210938 C74.41451172 37.92467773 74.41451172 37.92467773 75.75 37.9375 C76.63816406 37.94201172 77.52632813 37.94652344 78.44140625 37.95117188 C80.62767329 37.962926 82.81380179 37.97935751 85 38 C83.35 37.34 81.7 36.68 80 36 C80 35.34 80 34.68 80 34 C78.56163249 34.11458693 77.12429034 34.24209116 75.6875 34.375 C74.48673828 34.47941406 74.48673828 34.47941406 73.26171875 34.5859375 C70.72775559 34.89564426 70.72775559 34.89564426 68 37 C66.11845117 37.44111565 64.21937362 37.8109267 62.3125 38.125 C60.82169922 38.37636719 60.82169922 38.37636719 59.30078125 38.6328125 C58.54152344 38.75398438 57.78226562 38.87515625 57 39 C57 39.66 57 40.32 57 41 C56.34 41 55.68 41 55 41 C55 41.66 55 42.32 55 43 C54.34 43 53.68 43 53 43 C53 43.66 53 44.32 53 45 C52.01 45 51.02 45 50 45 C44.49252966 58.14431687 44.49252966 58.14431687 45 72 C44.01 72.33 43.02 72.66 42 73 C40.66666667 71.66666667 39.33333333 70.33333333 38 69 C38 69.99 38 70.98 38 72 C37.34 72 36.68 72 36 72 C35.34 69.36 34.68 66.72 34 64 C31.36 64.33 28.72 64.66 26 65 C26.33 65.99 26.66 66.98 27 68 C26.91426773 70.06587115 26.76166465 72.12946525 26.5625 74.1875 C26.40974609 75.81751953 26.40974609 75.81751953 26.25390625 77.48046875 C26.17011719 78.31191406 26.08632812 79.14335938 26 80 C24.35 80 22.7 80 21 80 C21.02320313 80.59167969 21.04640625 81.18335937 21.0703125 81.79296875 C21.17371429 86.32049003 21.17952152 89.89737126 19 94 C18.67 94.33 18.34 94.66 18 95 C18.03865754 97.91120997 18.14646989 100.78311019 18.3125 103.6875 C18.34794922 104.49123047 18.38339844 105.29496094 18.41992188 106.12304688 C18.82603955 114.26766044 18.82603955 114.26766044 23 121 C23 121.66 23 122.32 23 123 C22.34 123 21.68 123 21 123 C22.26974972 127.41522109 22.26974972 127.41522109 25 131 C25.125 133.625 25.125 133.625 25 136 C25.66 136.33 26.32 136.66 27 137 C26.67 137.66 26.34 138.32 26 139 C26.99 139 27.98 139 29 139 C29 139.99 29 140.98 29 142 C29.66 142 30.32 142 31 142 C31 142.99 31 143.98 31 145 C31.66 145 32.32 145 33 145 C33.24234375 145.51949219 33.4846875 146.03898438 33.734375 146.57421875 C37.06687418 153.91288537 37.06687418 153.91288537 43 159 C43 159.66 43 160.32 43 161 C34.41793248 160.97231591 28.15370904 159.65017023 20.640625 155.4609375 C17.91629456 153.85458382 17.91629456 153.85458382 14.375 152.75 C9.87776033 150.41809795 6.88777219 147.13513253 3.4296875 143.47265625 C1.0395032 140.93259812 1.0395032 140.93259812 -1.8046875 138.80859375 C-2.89136719 137.91333984 -2.89136719 137.91333984 -4 137 C-4 136.34 -4 135.68 -4 135 C-3.01 135 -2.02 135 -1 135 C-1 134.34 -1 133.68 -1 133 C-1.99 132.67 -2.98 132.34 -4 132 C-5.33333333 130 -6.66666667 128 -8 126 C-8.66 126.99 -9.32 127.98 -10 129 C-11.62737868 126.09064546 -12.34972896 123.68626361 -12.6875 120.375 C-12.77386719 119.59898438 -12.86023438 118.82296875 -12.94921875 118.0234375 C-13 116 -13 116 -12 114 C-12.66 113.67 -13.32 113.34 -14 113 C-14.33 112.34 -14.66 111.68 -15 111 C-15.66 111 -16.32 111 -17 111 C-19.38858824 102.63994116 -19.190218 94.61264844 -19 86 C-18.01 85.505 -18.01 85.505 -17 85 C-15.89576486 81.16765452 -15.07376771 77.50715299 -14.5 73.5625 C-14.335 72.716875 -14.17 71.87125 -14 71 C-13.01 70.505 -13.01 70.505 -12 70 C-12.309375 69.319375 -12.61875 68.63875 -12.9375 67.9375 C-16.23001387 58.83466755 -15.75791658 47.45294763 -14 38 C-13.50113281 37.04480469 -13.50113281 37.04480469 -12.9921875 36.0703125 C-11.71892337 33.41350152 -11.6520566 31.18469242 -11.5 28.25 C-11.16331732 23.25485333 -10.38551076 18.80310398 -9 14 C-8.34 14.33 -7.68 14.66 -7 15 C-6.34 13.02 -5.68 11.04 -5 9 C-5.66 8.67 -6.32 8.34 -7 8 C-5.68 7.67 -4.36 7.34 -3 7 C-2.67 5.35 -2.34 3.7 -2 2 C-1.34 2 -0.68 2 0 2 C0 1.34 0 0.68 0 0 Z M106 8 C107 10 107 10 107 10 Z M107 10 C107.33 11.98 107.66 13.96 108 16 C108.33 15.01 108.66 14.02 109 13 C108.34 12.01 107.68 11.02 107 10 Z M65 12 C66.98 12.99 66.98 12.99 69 14 C69 13.34 69 12.68 69 12 C67.68 12 66.36 12 65 12 Z M71 13 C71.66 13.66 72.32 14.32 73 15 C73.99 14.67 74.98 14.34 76 14 C74.35 13.67 72.7 13.34 71 13 Z M108 17 C108 18.65 108 20.3 108 22 C108.33 22 108.66 22 109 22 C109 20.35 109 18.7 109 17 C108.67 17 108.34 17 108 17 Z M-9 22 C-9 25.3 -9 28.6 -9 32 C-8.67 32 -8.34 32 -8 32 C-8 28.7 -8 25.4 -8 22 C-8.33 22 -8.66 22 -9 22 Z M12 33 C12 33.66 12 34.32 12 35 C12.66 34.67 13.32 34.34 14 34 C13.34 33.67 12.68 33.34 12 33 Z M20 33 C20.99 33.99 21.98 34.98 23 36 C23.66 35.34 24.32 34.68 25 34 C23.35 33.67 21.7 33.34 20 33 Z M17 37 C21 38 21 38 21 38 Z M81 39 C81.33 40.32 81.66 41.64 82 43 C82.33 42.01 82.66 41.02 83 40 C82.34 39.67 81.68 39.34 81 39 Z M85 39 C85 39.66 85 40.32 85 41 C86.32 41.33 87.64 41.66 89 42 C89 41.01 89 40.02 89 39 C87.68 39 86.36 39 85 39 Z M27 40 C27.66 40.66 28.32 41.32 29 42 C29 41.34 29 40.68 29 40 C28.34 40 27.68 40 27 40 Z M31 41 C30.34 41.66 29.68 42.32 29 43 C29.66 43 30.32 43 31 43 C31.33 43.66 31.66 44.32 32 45 C32.33 43.68 32.66 42.36 33 41 C32.34 41 31.68 41 31 41 Z M0 43 C1 45 1 45 1 45 Z M90 43 C89.67 50.26 89.34 57.52 89 65 C89.66 64.67 90.32 64.34 91 64 C92.36484149 57.85821328 92.55997491 51.254635 92 45 C91.34 44.34 90.68 43.68 90 43 Z M92 43 C93 45 93 45 93 45 Z M10 44 C10 44.33 10 44.66 10 45 C11.65 45 13.3 45 15 45 C15 44.67 15 44.34 15 44 C13.35 44 11.7 44 10 44 Z M65 44 C65 44.33 65 44.66 65 45 C66.65 45 68.3 45 70 45 C70 44.67 70 44.34 70 44 C68.35 44 66.7 44 65 44 Z M-1 45 C0 47 0 47 0 47 Z M9 45 C8.67 45.66 8.34 46.32 8 47 C9.65 47 11.3 47 13 47 C11.68 46.34 10.36 45.68 9 45 Z M29 45 C30 47 30 47 30 47 Z M64 45 C65 47 65 47 65 47 Z M70 45 C70 46.98 70 48.96 70 51 C70.33 51 70.66 51 71 51 C71 49.02 71 47.04 71 45 C70.67 45 70.34 45 70 45 Z M84 46 C85 48 85 48 85 48 Z M30 47 C31 50 31 50 31 50 Z M35 47 C35 50 35 50 35 50 Z M8 48 C9 50 9 50 9 50 Z M94 48 C93.67 50.97 93.34 53.94 93 57 C93.66 57 94.32 57 95 57 C95 54.03 95 51.06 95 48 C94.67 48 94.34 48 94 48 Z M15 49 C16 51 16 51 16 51 Z M-2 51 C-2 52.65 -2 54.3 -2 56 C-1.67 56 -1.34 56 -1 56 C-1 54.35 -1 52.7 -1 51 C-1.33 51 -1.66 51 -2 51 Z M0 53 C1 55 1 55 1 55 Z M1 55 C2 57 2 57 2 57 Z M30 55 C31 57 31 57 31 57 Z M-1 57 C0 60 0 60 0 60 Z M38 58 C37.67 58.66 37.34 59.32 37 60 C37.89163577 62.11683841 37.89163577 62.11683841 39 64 C39.33 62.02 39.66 60.04 40 58 C39.34 58 38.68 58 38 58 Z M93 59 C93.33 59.99 93.66 60.98 94 62 C94.33 61.01 94.66 60.02 95 59 C94.34 59 93.68 59 93 59 Z M3 60 C4 62 4 62 4 62 Z M0 61 C1 64 1 64 1 64 Z M81 62 C81 62.99 81 63.98 81 65 C81.66 65 82.32 65 83 65 C82.67 64.01 82.34 63.02 82 62 C81.67 62 81.34 62 81 62 Z M40 63 C40 64.98 40 66.96 40 69 C40.33 69 40.66 69 41 69 C41 67.02 41 65.04 41 63 C40.67 63 40.34 63 40 63 Z M92 63 C93 65 93 65 93 65 Z M1 64 C2 66 2 66 2 66 Z M91 65 C92 67 92 67 92 67 Z M108 71 C108 72.65 108 74.3 108 76 C108.33 76 108.66 76 109 76 C109 74.35 109 72.7 109 71 C108.67 71 108.34 71 108 71 Z M9 72 C9.99 72.99 10.98 73.98 12 75 C13.32 74.34 14.64 73.68 16 73 C13.69 72.67 11.38 72.34 9 72 Z M18 82 C19 84 19 84 19 84 Z M116 85 C117 87 117 87 117 87 Z M117 87 C118 89 118 89 118 89 Z M-18 98 C-17.67 100.64 -17.34 103.28 -17 106 C-16.34 105.67 -15.68 105.34 -15 105 C-15.66 102.69 -16.32 100.38 -17 98 C-17.33 98 -17.66 98 -18 98 Z M62 103 C63 107 63 107 63 107 Z M126 106 C127 108 127 108 127 108 Z M-16 107 C-15 109 -15 109 -15 109 Z M63 109 C63.33 109.99 63.66 110.98 64 112 C64 111.01 64 110.02 64 109 C63.67 109 63.34 109 63 109 Z M128 143 C129 147 129 147 129 147 Z M91 149 C92 151 92 151 92 151 Z M103 158 C103 158.66 103 159.32 103 160 C103.66 159.67 104.32 159.34 105 159 C104.34 158.67 103.68 158.34 103 158 Z " fill="#000000" transform="translate(102,0)"/>
<path d="M0 0 C2.64 0 5.28 0 8 0 C8 0.66 8 1.32 8 2 C8.680625 2.12375 9.36125 2.2475 10.0625 2.375 C13.4277412 3.09100877 16.70013425 4.02945125 20 5 C20.66 8.96 21.32 12.92 22 17 C21.87625 15.040625 21.7525 13.08125 21.625 11.0625 C21.55539063 9.96035156 21.48578125 8.85820312 21.4140625 7.72265625 C21.27742188 6.82417969 21.14078125 5.92570313 21 5 C20.34 4.67 19.68 4.34 19 4 C19 3.34 19 2.68 19 2 C25.27 2 31.54 2 38 2 C38.390625 11.86328125 38.390625 11.86328125 38 15 C36.08514924 16.87924403 34.37936711 17.81031644 32 19 C32 19.99 32 20.98 32 22 C28.37 22 24.74 22 21 22 C18.74315457 16.63999211 17.63736141 12.8022175 18 7 C16.68 7 15.36 7 14 7 C14 9.31 14 11.62 14 14 C13.67 14 13.34 14 13 14 C12.67 11.03 12.34 8.06 12 5 C11.34 5 10.68 5 10 5 C10.66 5.66 11.32 6.32 12 7 C11.63369992 12.67765131 11.13642256 16.86357744 7 21 C6.67 20.34 6.34 19.68 6 19 C4.906875 19.020625 3.81375 19.04125 2.6875 19.0625 C-1 19 -1 19 -4 18 C-6.5280158 14.54060995 -6.2184816 11.1511504 -6 7 C-5.71479595 5.32442621 -5.40044304 3.65182755 -5 2 C-3.68 2 -2.36 2 -1 2 C-0.67 1.34 -0.34 0.68 0 0 Z M36 5 C36 7.31 36 9.62 36 12 C36.33 12 36.66 12 37 12 C37 9.69 37 7.38 37 5 C36.67 5 36.34 5 36 5 Z M1 16 C5 17 5 17 5 17 Z " fill="#000000" transform="translate(33,194)"/>
<path d="M0 0 C1.8125 0.05078125 1.8125 0.05078125 4 0.3125 C4.721875 0.39113281 5.44375 0.46976563 6.1875 0.55078125 C7.0846875 0.77314453 7.0846875 0.77314453 8 1 C8.33 1.66 8.66 2.32 9 3 C9.99 3 10.98 3 12 3 C12.33 4.32 12.66 5.64 13 7 C12.01 6.67 11.02 6.34 10 6 C10.99 7.485 10.99 7.485 12 9 C13.32 6.36 14.64 3.72 16 1 C17.98 1 19.96 1 22 1 C22.77610991 5.29143127 23.25184596 9.52584343 23.5625 13.875 C23.68818359 15.60363281 23.68818359 15.60363281 23.81640625 17.3671875 C23.87699219 18.23601562 23.93757813 19.10484375 24 20 C22.08364783 20.05423638 20.16685075 20.09289963 18.25 20.125 C17.18265625 20.14820313 16.1153125 20.17140625 15.015625 20.1953125 C11.99861817 19.9999105 10.60401006 19.38880537 8 18 C5.86712627 17.76079045 5.86712627 17.76079045 3.75 17.875 C2.5125 17.91625 1.275 17.9575 0 18 C0 16 0 16 2 14 C2.35748865 11.40225081 2.35748865 11.40225081 2.3125 8.5 C2.32925781 7.5203125 2.34601563 6.540625 2.36328125 5.53125 C2.24339844 4.6959375 2.12351562 3.860625 2 3 C1.01 2.34 0.02 1.68 -1 1 C-0.67 0.67 -0.34 0.34 0 0 Z M20 3 C21 6 21 6 21 6 Z M6 9 C7 11 7 11 7 11 Z M7 11 C7 12.65 7 14.3 7 16 C7.33 16 7.66 16 8 16 C8 14.35 8 12.7 8 11 C7.67 11 7.34 11 7 11 Z M14 14 C15 16 15 16 15 16 Z M21 14 C22 16 22 16 22 16 Z " fill="#000000" transform="translate(266,195)"/>
<path d="M0 0 C1.97817126 4.77088362 2.25574588 7.97701647 1 13 C-0.78498683 16.05175168 -2.50534466 18.50534466 -5 21 C-8.4375 21.375 -8.4375 21.375 -12 21 C-14.95360584 18.04639416 -15.46067356 15.52701798 -15.75 11.4375 C-15.82734375 10.48746094 -15.9046875 9.53742188 -15.984375 8.55859375 C-16 6 -16 6 -15 3 C-9.89118151 -1.42764269 -6.32698054 -0.93348893 0 0 Z M-6 2 C-6 5.3 -6 8.6 -6 12 C-5.67 12 -5.34 12 -5 12 C-5 8.7 -5 5.4 -5 2 C-5.33 2 -5.66 2 -6 2 Z M-11 3 C-11 6.3 -11 9.6 -11 13 C-10.67 13 -10.34 13 -10 13 C-10 9.7 -10 6.4 -10 3 C-10.33 3 -10.66 3 -11 3 Z M-4 3 C-4 5.97 -4 8.94 -4 12 C-3.67 12 -3.34 12 -3 12 C-3 9.03 -3 6.06 -3 3 C-3.33 3 -3.66 3 -4 3 Z M-8 5 C-8 7.31 -8 9.62 -8 12 C-7.67 12 -7.34 12 -7 12 C-7 9.69 -7 7.38 -7 5 C-7.33 5 -7.66 5 -8 5 Z M-9 14 C-9 14.33 -9 14.66 -9 15 C-7.35 15 -5.7 15 -4 15 C-4 14.67 -4 14.34 -4 14 C-5.65 14 -7.3 14 -9 14 Z M-13 15 C-13 15.66 -13 16.32 -13 17 C-12.01 16.67 -11.02 16.34 -10 16 C-10.99 15.67 -11.98 15.34 -13 15 Z " fill="#000000" transform="translate(236,196)"/>
<path d="M0 0 C3.02116333 0.1770436 5.99598232 0.61920903 9 1 C9.495 9.415 9.495 9.415 10 18 C6.7 18 3.4 18 0 18 C0.375 15.0625 0.375 15.0625 1 12 C1.66 11.67 2.32 11.34 3 11 C1.02 11 -0.96 11 -3 11 C-3 11.66 -3 12.32 -3 13 C-2.34 13.33 -1.68 13.66 -1 14 C-1.33 14.33 -1.66 14.66 -2 15 C-1.67 15.99 -1.34 16.98 -1 18 C-3.97 18 -6.94 18 -10 18 C-10 12.39 -10 6.78 -10 1 C-8.535625 1.020625 -7.07125 1.04125 -5.5625 1.0625 C-4.04167482 1.08392007 -2.51928038 1.07179964 -1 1 C-0.67 0.67 -0.34 0.34 0 0 Z M-3 3 C-3 3.33 -3 3.66 -3 4 C-0.03 4.495 -0.03 4.495 3 5 C3 4.34 3 3.68 3 3 C1.02 3 -0.96 3 -3 3 Z M-8 4 C-8 7.96 -8 11.92 -8 16 C-7.67 16 -7.34 16 -7 16 C-7 12.04 -7 8.08 -7 4 C-7.33 4 -7.66 4 -8 4 Z M-3 6 C-3.33 6.66 -3.66 7.32 -4 8 C-1.69 8 0.62 8 3 8 C2.67 7.34 2.34 6.68 2 6 C0.35 6 -1.3 6 -3 6 Z " fill="#000000" transform="translate(10,195)"/>
<path d="M0 0 C6.27 0 12.54 0 19 0 C19 5.61 19 11.22 19 17 C16.03 17 13.06 17 10 17 C10.350625 16.21625 10.70125 15.4325 11.0625 14.625 C11.371875 13.75875 11.68125 12.8925 12 12 C11.67 11.34 11.34 10.68 11 10 C9.35 10 7.7 10 6 10 C6.34786708 11.97536745 6.34786708 11.97536745 7 14 C7.66 14.33 8.32 14.66 9 15 C9 15.66 9 16.32 9 17 C6.03 17 3.06 17 0 17 C0.495 15.515 0.495 15.515 1 14 C1.22325814 11.94106379 1.40705759 9.87766347 1.5625 7.8125 C1.64628906 6.72582031 1.73007813 5.63914063 1.81640625 4.51953125 C1.87699219 3.68808594 1.93757812 2.85664063 2 2 C1.34 2 0.68 2 0 2 C0 1.34 0 0.68 0 0 Z M10 1 C9.01 1.66 8.02 2.32 7 3 C9.97 3.495 9.97 3.495 13 4 C13 3.34 13 2.68 13 2 C12.01 1.67 11.02 1.34 10 1 Z M6 5 C6 5.66 6 6.32 6 7 C8.31 7 10.62 7 13 7 C11.16116119 4.71271266 11.16116119 4.71271266 8.375 4.875 C7.199375 4.936875 7.199375 4.936875 6 5 Z " fill="#000000" transform="translate(193,196)"/>
<path d="M0 0 C-0.33 1.32 -0.66 2.64 -1 4 C1.64 4 4.28 4 7 4 C7 5.32 7 6.64 7 8 C5.68 8 4.36 8 3 8 C3.185625 8.763125 3.37125 9.52625 3.5625 10.3125 C4 13 4 13 3 16 C4.65 16 6.3 16 8 16 C3.99561779 18.8202907 -0.12336539 18.00863471 -4.75 17.625 C-5.54277344 17.56828125 -6.33554688 17.5115625 -7.15234375 17.453125 C-9.10231735 17.31216305 -11.05128671 17.1574288 -13 17 C-13 16.34 -13 15.68 -13 15 C-11.68 15 -10.36 15 -9 15 C-9.66 14.34 -10.32 13.68 -11 13 C-11.4140625 9.9609375 -11.4140625 9.9609375 -11.625 6.375 C-11.69976562 5.18648437 -11.77453125 3.99796875 -11.8515625 2.7734375 C-11.90054688 1.85820312 -11.94953125 0.94296875 -12 0 C-10.56359829 -0.19573608 -9.12580496 -0.38127816 -7.6875 -0.5625 C-6.88699219 -0.66691406 -6.08648437 -0.77132812 -5.26171875 -0.87890625 C-3 -1 -3 -1 0 0 Z M0 11 C1 13 1 13 1 13 Z " fill="#000000" transform="translate(257,196)"/>
<path d="M0 0 C4.29 0 8.58 0 13 0 C13 2.97 13 5.94 13 9 C13.99 9 14.98 9 16 9 C16.33 11.31 16.66 13.62 17 16 C17.99 16.33 18.98 16.66 20 17 C12.97381022 18.5056121 6.10547081 17.64057643 -1 17 C-1 16.34 -1 15.68 -1 15 C-0.01 15 0.98 15 2 15 C1.51917969 14.61199219 1.03835937 14.22398437 0.54296875 13.82421875 C-1.45749498 11.45911353 -1.48876068 9.87308547 -1.6875 6.8125 C-1.75324219 5.91144531 -1.81898437 5.01039063 -1.88671875 4.08203125 C-1.92410156 3.39496094 -1.96148437 2.70789063 -2 2 C-1.34 2 -0.68 2 0 2 C0 1.34 0 0.68 0 0 Z M6 2 C6 3.65 6 5.3 6 7 C6.33 7 6.66 7 7 7 C7 5.35 7 3.7 7 2 C6.67 2 6.34 2 6 2 Z M9 5 C8.67 5.66 8.34 6.32 8 7 C8.66 7 9.32 7 10 7 C9.67 6.34 9.34 5.68 9 5 Z M6 10 C7 14 7 14 7 14 Z M9 11 C8.34 12.32 7.68 13.64 7 15 C8.65 14.67 10.3 14.34 12 14 C12 13.01 12 12.02 12 11 C11.01 11 10.02 11 9 11 Z " fill="#000000" transform="translate(100,196)"/>
<path d="M0 0 C0.66 0.33 1.32 0.66 2 1 C3.051875 0.814375 4.10375 0.62875 5.1875 0.4375 C9.57941068 -0.06648975 11.88760711 0.57325145 16 2 C16.85854854 11.65390133 16.85854854 11.65390133 13.9375 15.625 C11 18 11 18 7.5 18.625 C3.40427254 17.8936201 1.73311007 17.13503802 -1 14 C-2.5078053 8.67242126 -1.75667844 5.06336726 0 0 Z M3 5 C3 7.97 3 10.94 3 14 C3.33 14 3.66 14 4 14 C4 11.03 4 8.06 4 5 C3.67 5 3.34 5 3 5 Z M5 6 C5 8.64 5 11.28 5 14 C5.99 14 6.98 14 8 14 C8.33 11.03 8.66 8.06 9 5 C6.9254644 4.8509288 6.9254644 4.8509288 5 6 Z M10 8 C11 10 11 10 11 10 Z M4 15 C8 16 8 16 8 16 Z " fill="#000000" transform="translate(136,195)"/>
<path d="M0 0 C0.125 6.625 0.125 6.625 -1 10 C-0.01 10.66 0.98 11.32 2 12 C1.34 13.98 0.68 15.96 0 18 C-4.62 18 -9.24 18 -14 18 C-14 12.39 -14 6.78 -14 1 C-11.875625 0.835 -9.75125 0.67 -7.5625 0.5 C-5.77005859 0.36078125 -5.77005859 0.36078125 -3.94140625 0.21875 C-1 0 -1 0 0 0 Z M-7 3 C-7 3.99 -7 4.98 -7 6 C-5.35 6 -3.7 6 -2 6 C-2.639375 5.87625 -3.27875 5.7525 -3.9375 5.625 C-4.618125 5.41875 -5.29875 5.2125 -6 5 C-6.33 4.34 -6.66 3.68 -7 3 Z M-12 6 C-12 8.97 -12 11.94 -12 15 C-11.67 15 -11.34 15 -11 15 C-11 12.03 -11 9.06 -11 6 C-11.33 6 -11.66 6 -12 6 Z M-7 7 C-3 8 -3 8 -3 8 Z M-4 11 C-4.99 11.33 -5.98 11.66 -7 12 C-6.67 12.99 -6.34 13.98 -6 15 C-5.01 14.34 -4.02 13.68 -3 13 C-3.33 12.34 -3.66 11.68 -4 11 Z M-6 15 C-2 16 -2 16 -2 16 Z " fill="#000000" transform="translate(310,195)"/>
<path d="M0 0 C7.32026144 -0.48801743 7.32026144 -0.48801743 10.4375 1.75 C11.94398898 3.91934413 12.62951193 5.4065835 13 8 C12.01 8.495 12.01 8.495 11 9 C11.20625 10.11375 11.4125 11.2275 11.625 12.375 C11.74875 13.57125 11.8725 14.7675 12 16 C10 18 10 18 7.3984375 18.1953125 C6.40070313 18.17210937 5.40296875 18.14890625 4.375 18.125 C2.87066406 18.09792969 2.87066406 18.09792969 1.3359375 18.0703125 C0.56507813 18.04710937 -0.20578125 18.02390625 -1 18 C-0.79375 16.88625 -0.5875 15.7725 -0.375 14.625 C-0.25125 13.42875 -0.1275 12.2325 0 11 C-0.66 10.34 -1.32 9.68 -2 9 C-1.34 9 -0.68 9 0 9 C0 8.071875 0 7.14375 0 6.1875 C0 4.125 0 2.0625 0 0 Z M8 3 C9 6 9 6 9 6 Z M2 12 C2 12.66 2 13.32 2 14 C2.66 13.67 3.32 13.34 4 13 C3.34 12.67 2.68 12.34 2 12 Z " fill="#000000" transform="translate(320,195)"/>
<path d="M0 0 C1 1 1 1 1.0625 3.5625 C1.041875 4.366875 1.02125 5.17125 1 6 C-0.32 5.67 -1.64 5.34 -3 5 C-3 5.66 -3 6.32 -3 7 C-1.68 7.33 -0.36 7.66 1 8 C1.1875 11.375 1.1875 11.375 1 15 C-2.67346771 17.44897847 -4.66356399 17.31537716 -9 17 C-11 15 -11 15 -11.125 12.375 C-11.08375 11.59125 -11.0425 10.8075 -11 10 C-10.34 10 -9.68 10 -9 10 C-9.33 9.34 -9.66 8.68 -10 8 C-10.04022391 5.6670134 -10.04320247 3.33293334 -10 1 C-6.42721532 -1.33605152 -4.06815321 -0.99443745 0 0 Z M-7 2 C-7 2.33 -7 2.66 -7 3 C-5.35 3 -3.7 3 -2 3 C-2 2.67 -2 2.34 -2 2 C-3.65 2 -5.3 2 -7 2 Z " fill="#000000" transform="translate(90,196)"/>
<path d="M0 0 C4.29 0 8.58 0 13 0 C12.8238342 8.19170984 12.8238342 8.19170984 12 12 C8.9375 14.25 8.9375 14.25 6 15 C6.66 15 7.32 15 8 15 C8 15.66 8 16.32 8 17 C5.36 17 2.72 17 0 17 C-1.8313116 11.51963047 -0.5065431 5.62825663 0 0 Z M6 1 C6 2.65 6 4.3 6 6 C6.99 6 7.98 6 9 6 C9 5.01 9 4.02 9 3 C8.34 3 7.68 3 7 3 C6.67 2.34 6.34 1.68 6 1 Z M6 9 C7.98 9.99 7.98 9.99 10 11 C10 10.34 10 9.68 10 9 C8.68 9 7.36 9 6 9 Z " fill="#000000" transform="translate(160,196)"/>
<path d="M0 0 C0.33 0 0.66 0 1 0 C0.42978066 5.3503559 -0.20734361 10.67787852 -1 16 C-1.33 16 -1.66 16 -2 16 C-2.2358396 10.22192976 -1.86783046 5.48675196 0 0 Z " fill="#000000" transform="translate(149,54)"/>
<path d="M0 0 C3.96 0 7.92 0 12 0 C12 0.33 12 0.66 12 1 C8.04 1 4.08 1 0 1 C0 0.67 0 0.34 0 0 Z " fill="#000000" transform="translate(158,214)"/>
<path d="M0 0 C3.63 0 7.26 0 11 0 C11 0.33 11 0.66 11 1 C7.37 1 3.74 1 0 1 C0 0.67 0 0.34 0 0 Z " fill="#000000" transform="translate(246,214)"/>
<path d="M0 0 C3.63 0 7.26 0 11 0 C11 0.33 11 0.66 11 1 C7.37 1 3.74 1 0 1 C0 0.67 0 0.34 0 0 Z " fill="#000000" transform="translate(102,214)"/>
<path d="M0 0 C2.64 0.33 5.28 0.66 8 1 C8 1.33 8 1.66 8 2 C5.03 2 2.06 2 -1 2 C-0.67 1.34 -0.34 0.68 0 0 Z " fill="#000000" transform="translate(31,213)"/>
<path d="M0 0 C2.97 0 5.94 0 9 0 C9 0.33 9 0.66 9 1 C6.03 1 3.06 1 0 1 C0 0.67 0 0.34 0 0 Z " fill="#000000" transform="translate(0,214)"/>
<path d="M0 0 C2.64 0 5.28 0 8 0 C8 0.33 8 0.66 8 1 C5.36 1 2.72 1 0 1 C0 0.67 0 0.34 0 0 Z " fill="#000000" transform="translate(11,214)"/>
<path d="M0 0 C0.33 0.66 0.66 1.32 1 2 C-1.31 2 -3.62 2 -6 2 C-6 1.67 -6 1.34 -6 1 C-4.02 0.67 -2.04 0.34 0 0 Z " fill="#000000" transform="translate(308,193)"/>
<path d="M0 0 C0.66 0.66 1.32 1.32 2 2 C0.68 1.67 -0.64 1.34 -2 1 C-1.34 0.67 -0.68 0.34 0 0 Z " fill="#000000" transform="translate(96,211)"/>
<path d="M0 0 C1.65 0 3.3 0 5 0 C5 0.33 5 0.66 5 1 C3.35 1 1.7 1 0 1 C0 0.67 0 0.34 0 0 Z " fill="#000000" transform="translate(263,209)"/>
<path d="M0 0 C0.33 1.32 0.66 2.64 1 4 C0.34 3.34 -0.32 2.68 -1 2 C-0.67 1.34 -0.34 0.68 0 0 Z " fill="#000000" transform="translate(222,165)"/>
<path d="M0 0 C0.66 0.66 1.32 1.32 2 2 C1.01 2 0.02 2 -1 2 C-0.67 1.34 -0.34 0.68 0 0 Z " fill="#000000" transform="translate(199,155)"/>
<path d="M0 0 C0.99 0.495 0.99 0.495 2 1 C2 1.66 2 2.32 2 3 C1.34 3 0.68 3 0 3 C0 2.01 0 1.02 0 0 Z " fill="#000000" transform="translate(196,153)"/>
<path d="M0 0 C0.66 0 1.32 0 2 0 C2 0.66 2 1.32 2 2 C1.34 2 0.68 2 0 2 C0 1.34 0 0.68 0 0 Z " fill="#000000" transform="translate(279,196)"/>
<path d="M0 0 C1 4 1 4 1 4 Z " fill="#000000" transform="translate(150,50)"/>
<path d="M0 0 C4 1 4 1 4 1 Z " fill="#000000" transform="translate(177,37)"/>
<path d="M0 0 C4 1 4 1 4 1 Z " fill="#000000" transform="translate(173,36)"/>
<path d="M0 0 C0.66 0 1.32 0 2 0 C1.67 0.66 1.34 1.32 1 2 C0.67 1.34 0.34 0.68 0 0 Z " fill="#000000" transform="translate(141,155)"/>
<path d="M0 0 C0.66 0 1.32 0 2 0 C1.67 0.66 1.34 1.32 1 2 C0.67 1.34 0.34 0.68 0 0 Z " fill="#000000" transform="translate(139,153)"/>
<path d="M0 0 C0.66 0.66 1.32 1.32 2 2 C1.34 2 0.68 2 0 2 C0 1.34 0 0.68 0 0 Z " fill="#000000" transform="translate(189,147)"/>
<path d="" fill="#000000" transform="translate(0,0)"/>
<path d="" fill="#000000" transform="translate(0,0)"/>
<path d="" fill="#000000" transform="translate(0,0)"/>
<path d="M0 0 C2 1 2 1 2 1 Z " fill="#000000" transform="translate(236,197)"/>
<path d="M0 0 C2 1 2 1 2 1 Z " fill="#000000" transform="translate(30,194)"/>
<path d="M0 0 C2 1 2 1 2 1 Z " fill="#000000" transform="translate(143,157)"/>
<path d="" fill="#000000" transform="translate(0,0)"/>
<path d="" fill="#000000" transform="translate(0,0)"/>
<path d="" fill="#000000" transform="translate(0,0)"/>
<path d="" fill="#000000" transform="translate(0,0)"/>
<path d="" fill="#000000" transform="translate(0,0)"/>
<path d="" fill="#000000" transform="translate(0,0)"/>
<path d="" fill="#000000" transform="translate(0,0)"/>
<path d="" fill="#000000" transform="translate(0,0)"/>
<path d="" fill="#000000" transform="translate(0,0)"/>
<path d="" fill="#000000" transform="translate(0,0)"/>
<path d="" fill="#000000" transform="translate(0,0)"/>
<path d="" fill="#000000" transform="translate(0,0)"/>
<path d="" fill="#000000" transform="translate(0,0)"/>
<path d="" fill="#000000" transform="translate(0,0)"/>
<path d="" fill="#000000" transform="translate(0,0)"/>
<path d="" fill="#000000" transform="translate(0,0)"/>
<path d="" fill="#000000" transform="translate(0,0)"/>
<path d="" fill="#000000" transform="translate(0,0)"/>
<path d="" fill="#000000" transform="translate(0,0)"/>
<path d="" fill="#000000" transform="translate(0,0)"/>
<path d="" fill="#000000" transform="translate(0,0)"/>
<path d="" fill="#000000" transform="translate(0,0)"/>
<path d="" fill="#000000" transform="translate(0,0)"/>
<path d="" fill="#000000" transform="translate(0,0)"/>
<path d="" fill="#000000" transform="translate(0,0)"/>
<path d="" fill="#000000" transform="translate(0,0)"/>
<path d="" fill="#000000" transform="translate(0,0)"/>
<path d="" fill="#000000" transform="translate(0,0)"/>
<path d="" fill="#000000" transform="translate(0,0)"/>
</svg>
